<svg version="1.1" xmlns="http://www.w3.org/2000/svg" viewBox="0 0 394.709414522017 359.72128211747815" width="394.709414522017" height="359.72128211747815">
  <!-- svg-source:excalidraw -->
  
  <defs>
    <style>
      @font-face {
        font-family: "Virgil";
        src: url("https://excalidraw.com/Virgil.woff2");
      }
      @font-face {
        font-family: "Cascadia";
        src: url("https://excalidraw.com/Cascadia.woff2");
      }
    </style>
  </defs>
  <g stroke-linecap="round"><g transform="translate(199.17808789752291 161.13082562056633) rotate(270.2001943540179 -1.8195073274459332 184.9215905988127)"><path d="M-0.09 0.02 C0.07 61.85, -0.28 307.56, -0.05 369.54 M-3.58 -2.43 C-3.71 59.86, -2.91 309.3, -2.27 372.28" stroke="#d9480f" stroke-width="4" fill="none"></path></g></g><g stroke-linecap="round" transform="translate(197.33491693929886 168.95420718508086) rotate(270.2001943540179 138.48391474232807 41.34840158039921)"><path d="M20.7 -2.35 L267.27 2.31 L272.67 7.11 L277.24 17.7 L279 70.69 L267.41 76.74 L253.81 86.35 L14.32 78.74 L3.98 79.56 L-3.28 69.65 L-0.53 16.18 L4.42 2.9 L12.43 0.19 L19.84 3.31" stroke="none" stroke-width="0" fill="#e3e000"></path><path d="M20.67 0 M20.67 0 C70.94 0.79, 121.7 3.09, 256.29 0 M20.67 0 C103.85 -2.46, 190.58 -3.41, 256.29 0 M256.29 0 C272.75 -1.39, 274.71 8.13, 276.97 20.67 M256.29 0 C271.89 2.71, 277.25 4.22, 276.97 20.67 M276.97 20.67 C276.98 35.65, 280.71 52.59, 276.97 62.02 M276.97 20.67 C275.54 30.64, 276.84 38.21, 276.97 62.02 M276.97 62.02 C277.25 73.38, 271.78 86.68, 256.29 82.7 M276.97 62.02 C275.75 73.71, 271.41 84.66, 256.29 82.7 M256.29 82.7 C192.58 82.34, 132.21 80.94, 20.67 82.7 M256.29 82.7 C206.24 83.13, 152.73 81.61, 20.67 82.7 M20.67 82.7 C7.62 85.56, -2.35 77.08, 0 62.02 M20.67 82.7 C3.79 79.49, -4.24 75.47, 0 62.02 M0 62.02 C-1.45 50.74, -0.04 42.88, 0 20.67 M0 62.02 C-2.45 47.14, 1.12 33.19, 0 20.67 M0 20.67 C2.91 4.7, 6.47 -1.23, 20.67 0 M0 20.67 C-2.44 8.42, 4.92 -0.46, 20.67 0" stroke="#d9480f" stroke-width="4" fill="none"></path></g><g stroke-linecap="round" transform="translate(26.60652584167292 192.92442530658133) rotate(270.2001943540179 116.61803346722348 39.71978329564101)"><path d="M21.79 1.02 L220.67 0.28 L231.04 9.63 L236.25 14.83 L230.51 65.22 L223 80.3 L216.07 76.78 L9.98 80.23 L1.37 77.26 L-0.54 64.58 L-0.44 12.94 L5.77 3.86 L10.34 4.56 L16.2 -3.35" stroke="none" stroke-width="0" fill="#0280ff"></path><path d="M19.86 0 M19.86 0 C63.59 2.63, 103.11 6.17, 213.38 0 M19.86 0 C94.25 -1.82, 167.29 -2.1, 213.38 0 M213.38 0 C224.36 1.24, 234.81 8.98, 233.24 19.86 M213.38 0 C226.9 -2.67, 237.37 8.87, 233.24 19.86 M233.24 19.86 C236.5 28.09, 229.96 38.75, 233.24 59.58 M233.24 19.86 C232.03 32.26, 232.66 44.76, 233.24 59.58 M233.24 59.58 C234.94 76.8, 225.56 77.61, 213.38 79.44 M233.24 59.58 C234.57 74.78, 224.8 74.91, 213.38 79.44 M213.38 79.44 C168.01 83.75, 122.4 85.82, 19.86 79.44 M213.38 79.44 C157.09 81.64, 104.62 83.51, 19.86 79.44 M19.86 79.44 C4.27 80.71, -2.7 70.03, 0 59.58 M19.86 79.44 C2.38 79.11, -3.07 75.8, 0 59.58 M0 59.58 C0.68 47.41, 2.94 37.19, 0 19.86 M0 59.58 C2.37 52.2, 2.24 40.36, 0 19.86 M0 19.86 C-0.42 5.39, 4.5 1.33, 19.86 0 M0 19.86 C-1.97 6.16, 2.5 1.61, 19.86 0" stroke="#d9480f" stroke-width="4" fill="none"></path></g><g stroke-linecap="round" transform="translate(70.12766929398117 139.56661664368954) rotate(270.2001943540179 169.720887992477 40.294024415049506)"><path d="M18.75 -0.97 L324.61 2.18 L334.9 2.46 L336.7 8.28 L336.64 68.82 L339.3 70.06 L330.38 79.78 L315.7 83.37 L14.58 80.62 L7.12 75.49 L2.06 68.15 L-0.84 23.46 L-2.4 7.98 L1.4 6.38 L7.98 4.53 L19.54 2.33" stroke="none" stroke-width="0" fill="#40c057"></path><path d="M20.15 0 M20.15 0 C132.86 5.15, 242.84 5.14, 319.29 0 M20.15 0 C100.07 -0.49, 178.93 -2.21, 319.29 0 M319.29 0 C336.32 1.95, 336.07 6.32, 339.44 20.15 M319.29 0 C331.4 3.84, 339.05 3.03, 339.44 20.15 M339.44 20.15 C341.41 33.01, 338.37 48.12, 339.44 60.44 M339.44 20.15 C339.26 28.88, 340.37 40.3, 339.44 60.44 M339.44 60.44 C337.86 69.93, 329.78 77.83, 319.29 80.59 M339.44 60.44 C342.94 72.1, 334.3 76.76, 319.29 80.59 M319.29 80.59 C205.86 80.69, 87.77 83.76, 20.15 80.59 M319.29 80.59 C207.13 80.97, 95.59 81.88, 20.15 80.59 M20.15 80.59 C4.05 83.18, 0.41 72.96, 0 60.44 M20.15 80.59 C4.83 81.16, 0.17 77.05, 0 60.44 M0 60.44 C1.34 49.25, 3.94 34.64, 0 20.15 M0 60.44 C-0.97 51.22, -0.77 40.48, 0 20.15 M0 20.15 C-3.58 8.12, 9.12 -1.19, 20.15 0 M0 20.15 C0.31 5.36, 5.94 2.31, 20.15 0" stroke="#d9480f" stroke-width="4" fill="none"></path></g><g stroke-linecap="round" transform="translate(-20.23202332894789 238.21588916789068) rotate(270.2001943540179 73.92750335868624 35.74035405664645)"><path d="M18.46 1.87 L133.31 -0.37 L139.39 -0.54 L142.86 10.64 L150.27 11.02 L146.66 55.64 L141.74 67.29 L136.95 70.71 L129.24 69.22 L18.67 70.38 L6.14 72.28 L-1.14 61.15 L-3.36 59.14 L-3.07 16.95 L1.91 9.31 L9.91 5.61 L14.98 1.45" stroke="none" stroke-width="0" fill="#ef1100"></path><path d="M17.87 0 M17.87 0 C57.64 -3.75, 101.43 0.08, 129.98 0 M17.87 0 C59.91 2.28, 96.67 1.1, 129.98 0 M129.98 0 C140.75 3.34, 147.52 2.76, 147.86 17.87 M129.98 0 C143.91 1.32, 143.73 7.95, 147.86 17.87 M147.86 17.87 C145.2 29.42, 151.61 36.5, 147.86 53.61 M147.86 17.87 C147.27 24.99, 146.59 34.67, 147.86 53.61 M147.86 53.61 C150.9 63.98, 143.27 68.15, 129.98 71.48 M147.86 53.61 C151.81 64.69, 144.65 74.62, 129.98 71.48 M129.98 71.48 C108.88 69.54, 83.32 69.19, 17.87 71.48 M129.98 71.48 C102.83 72.61, 78.54 70.86, 17.87 71.48 M17.87 71.48 C4.32 71.98, 0.15 68.28, 0 53.61 M17.87 71.48 C8.54 68.18, -4.55 66.4, 0 53.61 M0 53.61 C-2.79 39.64, -1.83 24.4, 0 17.87 M0 53.61 C-1.49 42.4, 1.51 29.2, 0 17.87 M0 17.87 C0.27 4.78, 5.29 2.01, 17.87 0 M0 17.87 C1.75 7.19, 2.28 -0.55, 17.87 0" stroke="#d9480f" stroke-width="4" fill="none"></path></g></svg>